<?xml version="1.0" standalone="no"?>
<!DOCTYPE svg PUBLIC "-//W3C//DTD SVG 20010904//EN"
 "http://www.w3.org/TR/2001/REC-SVG-20010904/DTD/svg10.dtd">
<svg version="1.0" xmlns="http://www.w3.org/2000/svg"
 width="200.000000pt" height="200.000000pt" viewBox="0 0 200.000000 200.000000"
 preserveAspectRatio="xMidYMid meet">
<metadata>
Created by potrace 1.16, written by Peter Selinger 2001-2019
</metadata>
<g transform="translate(0.000000,200.000000) scale(0.100000,-0.100000)"
fill="#000000" stroke="none">
<path d="M641 1618 c1 -40 4 -110 7 -155 l7 -81 188 -191 188 -192 -67 -75
c-37 -41 -65 -76 -63 -77 2 -2 39 -28 81 -60 42 -31 79 -53 81 -49 2 4 19 52
37 107 18 55 39 107 46 116 8 8 56 44 108 79 l94 63 12 61 c32 166 26 153 81
166 27 7 51 15 54 19 2 4 -33 33 -78 64 l-82 56 -70 -69 -70 -69 -260 170
c-143 94 -268 175 -277 180 -16 9 -18 3 -17 -63z"/>
<path d="M1215 1667 l-90 -19 -57 -74 -57 -73 80 -56 c44 -31 85 -58 93 -61 7
-3 33 18 58 48 44 52 46 57 58 151 7 54 11 99 9 101 -2 1 -44 -6 -94 -17z"/>
<path d="M990 471 l0 -108 65 -1 c81 -2 105 17 105 78 0 58 -29 84 -86 77
l-44 -5 0 34 c0 27 -4 34 -20 34 -19 0 -20 -7 -20 -109z"/>
<path d="M100 465 l0 -105 80 0 c73 0 80 2 80 20 0 18 -7 20 -55 20 -52 0 -55
1 -55 25 0 23 3 25 50 25 38 0 50 4 50 15 0 11 -12 15 -50 15 -47 0 -50 2 -50
25 0 24 3 25 55 25 48 0 55 2 55 20 0 18 -7 20 -80 20 l-80 0 0 -105z"/>
<path d="M311 496 c-30 -32 -28 -86 4 -116 20 -19 32 -22 65 -17 40 5 40 5 40
-29 0 -27 4 -34 20 -34 19 0 20 7 20 109 l0 108 -64 1 c-54 1 -66 -2 -85 -22z"/>
<path d="M510 457 c0 -83 13 -96 98 -95 l62 1 0 78 c0 72 -2 79 -20 79 -17 0
-20 -7 -20 -41 0 -52 -15 -79 -44 -79 -28 0 -36 16 -36 76 0 37 -3 44 -20 44
-18 0 -20 -7 -20 -63z"/>
<path d="M1420 457 c0 -83 13 -96 98 -95 l62 1 0 78 c0 72 -2 79 -20 79 -17 0
-20 -7 -20 -41 0 -52 -15 -79 -44 -79 -28 0 -36 16 -36 76 0 37 -3 44 -20 44
-18 0 -20 -7 -20 -63z"/>
<path d="M1630 439 c0 -72 2 -79 20 -79 17 0 20 7 20 48 0 58 10 75 41 70 22
-3 24 -9 27 -60 3 -54 5 -58 27 -58 22 0 24 4 27 58 3 53 5 57 28 57 23 0 25
-4 28 -57 3 -54 5 -58 27 -58 24 0 25 3 25 58 0 81 -19 106 -74 98 -22 -3 -45
-6 -51 -5 -5 0 -40 2 -77 4 l-68 4 0 -80z"/>
</g>
</svg>
